<svg width="16" height="16" viewBox="0 0 16 16" fill="none" stroke="#686868" xmlns="http://www.w3.org/2000/svg">
<path d="M14 8C13.7221 8.36122 13.2475 8.85293 12.6154 9.33372M8 11V13M8 11C9.01406 11 9.94834 10.7643 10.7692 10.4142M8 11C6.98594 11 6.05166 10.7643 5.23077 10.4142M2 8C2.27786 8.36122 2.75245 8.85293 3.38462 9.33372M10.7692 10.4142L11.6923 12M10.7692 10.4142C11.4758 10.113 12.0983 9.72699 12.6154 9.33372M12.6154 9.33372L13.5385 10.4142M5.23077 10.4142L4.30769 12M5.23077 10.4142C4.52424 10.113 3.90171 9.72699 3.38462 9.33372M3.38462 9.33372L2.46154 10.4142"/>
</svg>
