<svg width="28" height="28" viewBox="0 0 28 28" fill="none" xmlns="http://www.w3.org/2000/svg">
<path d="M18.1849 5.74024L13.4937 11.4153C13.7543 11.1 14.0864 10.313 13.3297 9.68755C12.5731 9.06206 11.8626 9.53624 11.602 9.85152L10.8202 10.7974C11.0808 10.4821 11.4488 9.72488 10.6562 9.06965C9.71035 8.28778 8.40724 9.86418 8.14661 10.1795C8.40724 9.86418 8.73931 9.07725 7.98265 8.45175C7.22598 7.82626 6.51557 8.30044 6.25494 8.61572C6.25494 8.61572 4.52841 11.0164 3.60039 12.79C2.67237 14.5636 2.44778 15.34 2.20063 16.4094C1.95347 17.4788 2.36459 18.1371 2.83751 18.528L5.67498 20.8736C7.56665 22.4373 8.50412 22.5109 9.2944 22.2734L9.29442 22.2734C10.0847 22.0358 11.413 21.6365 12.6678 21.0816C13.2302 20.8329 15.2593 20.8356 15.2593 20.8356L18.3238 20.9806C20.5245 21.2076 20.2785 18.616 18.0779 18.3891L15.8773 18.1621C15.5978 18.1621 13.8713 18.1223 13.515 17.2075C13.2041 16.4094 13.5772 15.5043 14.0985 14.8737L20.0766 7.30397C20.3372 6.98869 20.6693 6.20176 19.9126 5.57627C19.1559 4.95078 18.4455 5.42496 18.1849 5.74024Z M15.2142 3.95805C16.3048 2.6387 19.197 0.587667 22.0406 2.93834C24.8843 5.28902 23.4139 8.51539 22.3233 9.83474" stroke="white" stroke-linecap="round"/>
<!-- <path d="M15.2142 3.95805C16.3048 2.6387 19.197 0.587667 22.0406 2.93834C24.8843 5.28902 23.4139 8.51539 22.3233 9.83474" stroke="white" stroke-linecap="round"/> -->
</svg>
