<svg width="25" height="25" viewBox="0 0 25 25" fill="none" xmlns="http://www.w3.org/2000/svg">
<path d="M16.9003 5.10935L12.6482 10.2531C12.8845 9.96736 13.1855 9.25409 12.4996 8.68715C11.8138 8.12021 11.1699 8.55 10.9337 8.83577L10.225 9.69306C10.4612 9.4073 10.7948 8.72099 10.0764 8.12709C9.21907 7.41842 8.03794 8.84724 7.80172 9.13301C8.03794 8.84724 8.33893 8.13398 7.6531 7.56704C6.96726 7.0001 6.32335 7.42989 6.08713 7.71566C6.08713 7.71566 4.52222 9.89161 3.68107 11.4992C2.83993 13.1067 2.63636 13.8104 2.41234 14.7797C2.18832 15.749 2.56096 16.3457 2.98961 16.7L5.56146 18.826C7.27605 20.2434 8.12576 20.3101 8.84206 20.0948C9.55836 19.8795 10.7624 19.5175 11.8997 19.0146C12.4095 18.7891 14.2486 18.7916 14.2486 18.7916L17.0262 18.9231C19.0209 19.1288 18.7979 16.7798 16.8033 16.5741L14.8087 16.3684C14.5554 16.3684 12.9906 16.3323 12.6676 15.5031C12.3858 14.7797 12.724 13.9594 13.1964 13.3878L18.6149 6.5267C18.8511 6.24094 19.1521 5.52767 18.4663 4.96073C17.7804 4.39379 17.1365 4.82359 16.9003 5.10935Z" stroke="white"/>
<path d="M13.7253 6.51315C13.7253 4.39786 14.7829 3.3399 14.7829 3.3399C15.6571 2.28236 18.0401 0.691805 20.5782 2.7899C23.1163 4.88799 22.0024 7.5276 21.1282 8.58514C21.1282 8.58514 19.5424 10.2149 17.9559 9.68609" stroke="white" stroke-linecap="round"/>
</svg>
