<svg width="17" height="17" viewBox="0 0 17 17" fill="white" xmlns="http://www.w3.org/2000/svg">
<path fill-rule="evenodd" clip-rule="evenodd" d="M15.4545 3.09091C16.308 3.09091 16.9999 2.39899 16.9999 1.54545C16.9999 0.691924 16.308 0 15.4545 0C14.6009 0 13.909 0.691924 13.909 1.54545C13.909 2.39899 14.6009 3.09091 15.4545 3.09091ZM2.95688 13.3359L13.3359 2.95688C13.5226 3.2366 13.7633 3.47726 14.043 3.664L3.66402 14.0429C3.47728 13.7632 3.23661 13.5226 2.95688 13.3359ZM2.93329 14.7737L2.93324 14.7737C3.03421 14.9791 3.09091 15.2102 3.09091 15.4546C3.09091 16.3081 2.39899 17 1.54545 17C0.691924 17 0 16.3081 0 15.4546C0 14.601 0.691924 13.9091 1.54545 13.9091C1.78971 13.9091 2.02073 13.9658 2.22609 14.0667L2.22611 14.0666C2.53294 14.2174 2.78248 14.4669 2.93329 14.7737Z"/>
</svg>
