<svg width="112" height="37" viewBox="0 0 112 37" fill="none" xmlns="http://www.w3.org/2000/svg">
<path d="M8.14214 18.8816C8.14214 19.3071 8.00917 19.6528 7.7388 19.9188C7.46843 20.1891 7.12271 20.3221 6.70165 20.3221C4.0201 20.3221 2.68154 20.3221 0 20.3221C0 13.5496 0 6.77256 0 0C2.65938 0 3.98907 0 6.64846 0C7.07396 0 7.41968 0.132969 7.68562 0.40334C7.95156 0.67371 8.08896 1.01943 8.08896 1.4405C8.08896 3.85611 8.08896 5.06169 8.08896 7.4773C8.08896 8.01361 7.84075 8.50559 7.36206 8.82915C6.92326 9.12168 6.40911 9.40092 5.93486 9.68459C6.54651 10.0791 6.85234 10.2785 7.46843 10.673C7.92053 10.9522 8.14214 11.3822 8.14214 11.9717C8.14214 14.7374 8.14214 16.1203 8.14214 18.8816ZM6.27171 7.71664C6.27171 5.27001 6.27171 4.04669 6.27171 1.60006C4.48549 1.60006 3.59017 1.60006 1.80395 1.60006C1.80395 4.53425 1.80395 6.00134 1.80395 8.93553C2.8677 8.93553 3.39958 8.93553 4.46776 8.93553C5.19023 8.44797 5.54925 8.2042 6.27171 7.71664ZM6.3249 18.7265C6.3249 15.9164 6.3249 14.5114 6.3249 11.7013C5.59357 11.2226 5.22569 10.9833 4.49436 10.5046C3.41731 10.5046 2.881 10.5046 1.80838 10.5046C1.80838 13.7933 1.80838 15.4377 1.80838 18.7221C3.61233 18.7265 4.51652 18.7265 6.3249 18.7265Z" fill="white"/>
<path d="M23.9344 20.4675C19.6508 20.4675 15.3671 20.4675 11.0807 20.4675C11.0807 13.6727 11.0807 6.87358 11.0807 0.0788574C11.5171 0.0788574 13.4261 0.0788574 13.8946 0.0788574C13.8946 6.33996 13.8946 12.6011 13.8946 18.8666C17.8115 18.8666 20.0015 18.8666 23.9184 18.8666C23.921 19.5069 23.9237 19.8271 23.9344 20.4675Z" fill="white"/>
<path d="M53.6842 20.4675C53.6842 20.7051 53.5229 21.2331 53.4625 21.3539C53.2409 21.7971 52.5761 21.7971 52.1462 21.7626C48.587 17.5865 33.424 20.4675 28.5884 20.4675C28.1629 20.4675 27.0371 20.4675 27.0371 20.4675V18.8816C27.0371 18.8816 27.0376 8.25168 27.0371 1.44049C27.0371 0.908742 27.037 0.0788565 27.037 0.0788565C27.037 0.0788565 28.1409 0.0750377 28.5884 0.0788139C37.9316 0.157655 45.9276 4.95439 50.8032 7.83539C52.0186 8.55363 53.4625 10.0515 53.693 12.0461C53.693 13.3758 53.693 14.0885 53.693 15.1487C53.693 20.0721 53.6842 15.7639 53.6842 20.4675ZM51.8226 19.5199C51.8891 13.8953 51.3849 10.7164 50.3599 10.0515C42.1602 4.73277 36.3406 1.56622 30.8578 1.56622C31.4074 8.02316 31.8506 10.9042 30.8578 18.6926C36.93 18.6926 46.3443 16.5192 51.8226 19.5199Z" fill="white"/>
<path d="M66.1129 35.5648C66.1129 35.946 65.9755 36.274 65.6963 36.5355C65.417 36.797 65.0669 36.93 64.6458 36.93C62.5538 36.93 60.3465 36.5355 59.4112 34.8822C58.7789 33.7644 58.8293 33.986 57.9087 31.9915C56.579 29.1105 55.471 26.2295 55.4709 24.4566C55.4709 17.1433 55.2494 12.9325 56.579 12.9325C57.2439 12.9325 58.0133 13.3173 58.5736 13.5974C59.9033 14.2622 60.5542 14.7055 61.4546 15.3703C62.3549 16.0352 63.0059 16.4784 65.0004 17.8081C65.2082 17.9466 65.417 18.1104 65.6963 18.4029C65.9711 18.6999 66.1129 19.0678 66.1129 19.4888C66.1129 21.3726 66.1129 22.2945 66.1129 24.1605C65.386 24.125 63.9317 24.1206 63.2136 24.1561C63.2225 22.3477 63.2269 21.4524 63.2314 19.6262C61.4762 18.4029 57.4655 14.9271 57.4655 15.3703C57.4655 24.4565 58.5736 30.8834 60.1249 33.986C60.573 34.8822 61.7246 35.3874 63.533 35.3874C63.533 33.6012 63.533 32.9097 63.533 31.2787C64.2599 31.2787 65.386 31.3098 66.1129 31.3098C66.1129 32.9985 66.1129 33.7032 66.1129 35.5648Z" fill="white"/>
<path d="M76.6258 36.7084C75.8324 36.7084 75.4335 36.7084 74.6401 36.7084C72.7652 32.7415 71.8256 32.0899 69.9507 28.3047C69.9507 32.0943 69.9507 32.8035 69.9507 36.7084C69.2283 36.7084 68.8693 36.7084 68.1468 36.7084C68.1468 30.5874 68.1468 24.4708 68.1468 18.3498C68.8693 18.3808 69.2283 18.6822 69.9507 19.7903C69.9507 23.5533 69.9507 23.6153 69.9507 26.9174C71.6527 23.7439 72.5215 25.5611 74.1925 24.5373C74.9592 25.7473 75.3404 26.7312 76.1116 27.6399C76.1116 27.6886 76.1116 27.7108 76.1116 27.7551C74.3077 29.3596 73.4124 24.2314 71.573 27.5778C73.5985 31.2655 74.6091 32.6572 76.6258 36.7084Z" fill="white"/>
<path d="M86.3015 35.618C86.3015 35.8485 86.1685 36.1056 85.907 36.336C85.6411 36.5665 85.2998 36.7084 84.8743 36.7084C82.8266 36.7084 81.8027 36.7084 79.7594 36.7084C79.3339 36.7084 78.9882 36.5665 78.7134 36.336C78.4386 36.1056 78.3056 35.8485 78.3056 35.6224C78.3056 34.5188 78.3056 35.0196 78.3056 34.7537C79.0281 34.7404 79.3871 34.7271 80.1096 34.7094C80.1096 34.9842 80.1096 34.541 80.1096 35.5382C81.8648 35.5338 82.7424 35.5382 84.4976 35.5382C84.4976 34.5675 84.4976 34.9532 84.4976 34.7138C82.2548 34.3725 81.1467 31.9481 78.8774 31.1148C78.4829 30.973 78.2835 30.8488 78.279 30.7247C78.2657 30.3746 78.2569 30.3879 78.2524 29.3773C78.2524 29.1158 78.3898 28.841 78.6646 28.6061C78.9439 28.3712 79.2985 28.2294 79.7328 28.2294C81.8249 28.2294 82.8266 28.2294 84.8743 28.2294C85.2998 28.2294 85.6411 28.3712 85.907 28.6061C86.173 28.841 86.3015 29.1158 86.3015 29.3729C86.3015 30.5209 86.3015 30.3702 86.3015 30.8045C85.579 30.8045 85.22 30.8045 84.4976 30.8045C84.4976 30.3835 84.4976 30.512 84.4976 29.466C82.7424 29.466 81.8825 29.4615 80.0918 29.466C80.0918 30.4499 80.0963 30.3835 80.1007 30.7558C82.3789 31.3009 83.487 33.6456 85.743 34.4612C86.1153 34.5986 86.3015 34.6872 86.3015 34.7448C86.3015 34.9266 86.3015 34.5986 86.3015 35.618Z" fill="white"/>
<path d="M91.4031 36.7083C90.6806 36.7083 90.3216 36.7083 89.5991 36.7083C89.5991 28.5795 89.5991 36.3538 89.5991 28.2249C90.3216 28.2249 90.6806 28.2249 91.4031 28.2249C91.4031 36.3582 91.4031 28.5795 91.4031 36.7083Z" fill="white"/>
<path d="M101.34 29.4615C99.4433 29.4615 98.4948 29.4615 96.6022 29.4615C96.6022 31.23 96.6022 29.8604 96.6022 32.183C98.3485 32.183 99.2217 32.183 100.964 32.183C100.964 32.6705 100.964 33.1137 100.964 33.5924C99.2172 33.5924 98.3441 33.5924 96.6022 33.5924C96.6022 36.3538 96.6022 32.9497 96.6022 36.7039C95.8797 36.7039 95.5207 36.7039 94.7982 36.7039C94.7982 28.5751 94.7982 36.3493 94.7982 28.2205C97.4177 28.2205 98.7252 28.2205 101.345 28.2205C101.34 28.8676 101.34 29.0981 101.34 29.4615Z" fill="white"/>
<path d="M112 28.3402C111.012 31.5093 110.52 29.8383 109.531 31.5669C109.221 31.9968 108.809 33.7343 108.299 34.3903C108.299 35.4673 108.299 33.557 108.299 36.7083C107.577 36.7083 107.217 36.7083 106.495 36.7083C106.495 33.5614 106.495 35.4673 106.495 34.3903C106.375 34.1642 106.189 33.8008 105.937 33.1315C105.52 31.9835 105.294 31.6245 105.263 31.5669C104.274 29.8427 103.782 31.5093 102.794 28.3402C102.794 28.3313 102.794 28.2958 102.794 28.2249C103.525 28.2249 103.893 28.2249 104.625 28.2249C105.742 32.2938 106.3 28.8765 107.417 32.932C108.525 28.8765 109.075 32.2938 110.183 28.2249C110.91 28.2249 111.273 28.2249 112 28.2249C112 28.287 112 28.3269 112 28.3402Z" fill="white"/>
</svg>
