<svg width="17" height="17" viewBox="0 0 17 17" fill="white" xmlns="http://www.w3.org/2000/svg">
<circle cx="1.54545" cy="15.4546" r="1.54545" />
<circle cx="15.4546" cy="1.54545" r="1.54545" />
<circle cx="15.4546" cy="15.4546" r="1.54545" />
<path fill-rule="evenodd" clip-rule="evenodd" 
d="M15.4546 3.09088C15.0279 3.09088 14.6415 2.91792 14.3618 2.63827L15.4547 1.54544V3.09088H15.4546ZM3.34543 13.6547L13.6547 3.34537C14.1154 3.80599 14.7517 4.09088 15.4546 4.09088H15.4547V12.9091H15.4546C14.0488 12.9091 12.9091 14.0487 12.9091 15.4545H4.09094C4.09094 14.7517 3.80604 14.1153 3.34543 13.6547ZM3.09094 15.4545C3.09094 15.0278 2.91797 14.6414 2.63832 14.3618L1.54556 15.4545L3.09094 15.4545ZM13.9091 15.4545L15.4547 15.4545V13.9091H15.4546C14.6011 13.9091 13.9091 14.601 13.9091 15.4545Z" 
/>
</svg>
