<svg width="17" height="17" viewBox="0 0 17 17" fill="white" xmlns="http://www.w3.org/2000/svg">
<path fill-rule="evenodd" clip-rule="evenodd" 
d="M13.336 2.95709L9.91162 6.38143C10.1913 6.56816 10.432 6.80882 10.6187 7.08854L14.0431 3.66415C13.7634 3.47744 13.5227 3.2368 13.336 2.95709ZM8.50013 6.95456C8.74443 6.95456 8.97549 7.01124 9.18088 7.11218C9.48769 7.26296 9.7372 7.51248 9.88797 7.81929C9.9889 8.02467 10.0456 8.25572 10.0456 8.50001C10.0456 9.35354 9.35366 10.0455 8.50013 10.0455C8.25584 10.0455 8.02479 9.98878 7.81941 9.88786C7.51259 9.73709 7.26307 9.48757 7.11229 9.18076C7.01136 8.97537 6.95467 8.74431 6.95467 8.50001C6.95467 7.64648 7.6466 6.95456 8.50013 6.95456ZM6.38154 9.91151C6.56828 10.1912 6.80893 10.4319 7.08866 10.6186L3.6641 14.0432C3.47738 13.7634 3.23673 13.5228 2.95702 13.336L6.38154 9.91151ZM2.22628 14.0668C2.02088 13.9658 1.78979 13.9091 1.54545 13.9091C0.691923 13.9091 0 14.601 0 15.4546C0 16.3081 0.691923 17 1.54545 17C2.39899 17 3.09091 16.3081 3.09091 15.4546C3.09091 15.2103 3.03424 14.9793 2.93334 14.7739C2.78259 14.4671 2.53308 14.2176 2.22628 14.0668ZM14.0667 2.22636C14.2175 2.53315 14.4671 2.78264 14.7739 2.93338C14.9792 3.03426 15.2102 3.09091 15.4545 3.09091C16.308 3.09091 16.9999 2.39899 16.9999 1.54545C16.9999 0.691923 16.308 0 15.4545 0C14.6009 0 13.909 0.691923 13.909 1.54545C13.909 1.78551 13.9637 2.01278 14.0614 2.21547L14.0667 2.22636Z"/>
</svg>
