<svg width="24" height="25" viewBox="0 0 24 25" fill="none" stroke="white" xmlns="http://www.w3.org/2000/svg">
<path d="M16.002 5.67271L11.9817 10.5361C12.2051 10.2659 12.4897 9.59155 11.8412 9.05551C11.1927 8.51946 10.5839 8.92583 10.3606 9.19602L9.69053 10.0066C9.91388 9.7364 10.2293 9.0875 9.55001 8.52597C8.73944 7.85592 7.62269 9.20687 7.39934 9.47706C7.62269 9.20687 7.90728 8.53248 7.25882 7.99644C6.61036 7.4604 6.00155 7.86677 5.7782 8.13696C5.7782 8.13696 4.29858 10.1943 3.50328 11.7143C2.70798 13.2342 2.51551 13.8995 2.3037 14.816C2.09189 15.7325 2.44422 16.2966 2.8495 16.6317L5.28118 18.6418C6.90232 19.9819 7.70572 20.045 8.38298 19.8414C9.06024 19.6378 10.1986 19.2956 11.274 18.8201C11.7559 18.6069 13.4948 18.6092 13.4948 18.6092L16.1211 18.7335C18.007 18.928 17.7962 16.7071 15.9103 16.5126L14.0244 16.3181C13.7849 16.3181 12.3054 16.284 12 15.5C11.7336 14.816 12.0533 14.0404 12.5 13.5L17.6232 7.01281C17.8465 6.74262 18.1311 6.06823 17.4826 5.53219C16.8342 4.99615 16.2254 5.40252 16.002 5.67271Z"/>
<path d="M18.5 4.5L20.5 2"/>
<path d="M15.5 4.5L14 1.5"/>
<path d="M19 7L22 7.5" />
</svg>
