<svg width="10" height="10" viewBox="0 0 10 10" fill="#F5F5F5" xmlns="http://www.w3.org/2000/svg">
<defs>
<symbol id="start">
  <path fill-rule="evenodd" clip-rule="evenodd" d="M5 9C7.20914 9 9 7.20914 9 5C9 2.79086 7.20914 1 5 1C2.79086 1 1 2.79086 1 5C1 7.20914 2.79086 9 5 9ZM5 10C7.76142 10 10 7.76142 10 5C10 2.23858 7.76142 0 5 0C2.23858 0 0 2.23858 0 5C0 7.76142 2.23858 10 5 10Z"/>
</symbol>
<symbol id="bordered">
<path fill-rule="evenodd" clip-rule="evenodd" d="M0 0H1V0.833333H0.833334V1H0V0ZM0 9V10H1V9.16667H0.833333V9H0ZM9 10H10V9H9.16667V9.16667H9V10ZM10 1V0H9V0.833334H9.16667V1H10ZM2.5 0V1H4.16667V0H2.5ZM5.83333 0V1H7.5V0H5.83333ZM10 2.5H9V4.16667H10V2.5ZM10 5.83333H9V7.5H10V5.83333ZM7.5 10V9H5.83333V10H7.5ZM4.16667 10V9H2.5V10H4.16667ZM0 7.5H1V5.83333H0V7.5ZM0 4.16667H1V2.5H0V4.16667Z"/>  
</symbol>

<symbol id="divided">
<path fill-rule="evenodd" clip-rule="evenodd" d="M0 0.5V0.833333V1H0.833334V0.833333H1V0H0.833334H0.5H0V0.5ZM0 9.16667V9H0.833333V9.16667H1V10H0.833333H0.5H0V9.5V9.16667ZM9.16667 10H9V9.16667H9.16667V9H10V9.16667V9.5V10H9.5H9.16667ZM10 0.833334V1H9.16667V0.833334H9V0H9.16667H9.5H10V0.5V0.833334ZM2.5 0.5V0H3H4H4.16667V0.5V1H4V4H9V2.5H9.5H10V4V4.16667V5H4V6V7V9H4.16667V9.5V10H4H3H2.5V9.5V9H3V7H1V7.5H0.5H0V7V6V5.83333H0.5H1V6H3V1H2.5V0.5ZM5.83333 0.5V0H7.5V0.5V1H5.83333V0.5ZM9.5 5.83333H10V7.5H9.5H9V5.83333H9.5ZM7.5 9.5V10H5.83333V9.5V9H7.5V9.5ZM0.5 4.16667H0V2.5H0.5H1V4.16667H0.5Z"/>  
</symbol>


<symbol id="blocksified">
<path fill-rule="evenodd" clip-rule="evenodd" d="M0 0.5H3V6.5H0V0.5ZM1 1.5V5.5H2V1.5H1ZM4 0.5H10V4.5H4V0.5ZM5 1.5V3.5H9V1.5H5ZM4 5.5H10V10.5H4V5.5ZM5 6.5V9.5H9V6.5H5ZM0 7.5H3V10.5H0V7.5ZM1 8.5V9.5H2V8.5H1Z"/>
</symbol>

</defs>
</svg>
